<svg width="1200" height="630" xmlns="http://www.w3.org/2000/svg">
  <defs>
    <pattern id="checkerboard" width="4" height="4" patternUnits="userSpaceOnUse">
      <rect width="2" height="2" fill="#a0a0a0"/>
      <rect x="2" y="2" width="2" height="2" fill="#a0a0a0"/>
      <rect x="2" width="2" height="2" fill="#808080"/>
      <rect y="2" width="2" height="2" fill="#808080"/>
    </pattern>
  </defs>

  <!-- Background -->
  <rect width="1200" height="630" fill="url(#checkerboard)"/>

  <!-- Main window -->
  <rect x="100" y="60" width="700" height="500" fill="#ffffff" stroke="#000000" stroke-width="3"/>

  <!-- Window titlebar -->
  <rect x="100" y="60" width="700" height="28" fill="#ffffff" stroke="#000000" stroke-width="3"/>
  <rect x="108" y="68" width="14" height="14" fill="#ffffff" stroke="#000000" stroke-width="2"/>

  <!-- Titlebar stripes -->
  <g>
    <line x1="130" y1="68" x2="330" y2="68" stroke="#000" stroke-width="1"/>
    <line x1="130" y1="72" x2="330" y2="72" stroke="#000" stroke-width="1"/>
    <line x1="130" y1="76" x2="330" y2="76" stroke="#000" stroke-width="1"/>
    <line x1="130" y1="80" x2="330" y2="80" stroke="#000" stroke-width="1"/>
  </g>
  <text x="450" y="81" font-family="Geneva, Chicago, monospace" font-size="14" font-weight="bold" text-anchor="middle">axon-tagger.md</text>
  <g>
    <line x1="570" y1="68" x2="790" y2="68" stroke="#000" stroke-width="1"/>
    <line x1="570" y1="72" x2="790" y2="72" stroke="#000" stroke-width="1"/>
    <line x1="570" y1="76" x2="790" y2="76" stroke="#000" stroke-width="1"/>
    <line x1="570" y1="80" x2="790" y2="80" stroke="#000" stroke-width="1"/>
  </g>

  <!-- Window content area -->
  <rect x="110" y="98" width="680" height="452" fill="#ffffff"/>

  <!-- Big ML TAGGER text -->
  <text x="450" y="230" font-family="Geneva, Chicago, Impact, sans-serif" font-size="120" font-weight="bold" text-anchor="middle" fill="#000000">ML TAGGER</text>

  <!-- Subtitle -->
  <text x="450" y="290" font-family="Monaco, monospace" font-size="22" text-anchor="middle" fill="#444444">on-device neural network tagging</text>

  <!-- Stats box -->
  <rect x="180" y="320" width="540" height="80" fill="#eeeeee" stroke="#000000" stroke-width="2"/>
  <text x="450" y="355" font-family="Monaco, monospace" font-size="32" font-weight="bold" text-anchor="middle" fill="#000000">1,700 predictions/sec</text>
  <text x="450" y="385" font-family="Monaco, monospace" font-size="16" text-anchor="middle" fill="#666666">Apple Silicon • EXLA backend</text>

  <!-- Neural network visualization -->
  <g transform="translate(200, 420)">
    <!-- Input layer -->
    <circle cx="50" cy="30" r="12" fill="#dddddd" stroke="#000" stroke-width="2"/>
    <circle cx="50" cy="70" r="12" fill="#dddddd" stroke="#000" stroke-width="2"/>
    <circle cx="50" cy="110" r="12" fill="#dddddd" stroke="#000" stroke-width="2"/>
    <!-- Hidden layer -->
    <circle cx="150" cy="20" r="12" fill="#cccccc" stroke="#000" stroke-width="2"/>
    <circle cx="150" cy="55" r="12" fill="#cccccc" stroke="#000" stroke-width="2"/>
    <circle cx="150" cy="90" r="12" fill="#cccccc" stroke="#000" stroke-width="2"/>
    <circle cx="150" cy="125" r="12" fill="#cccccc" stroke="#000" stroke-width="2"/>
    <!-- Output layer -->
    <circle cx="250" cy="50" r="12" fill="#bbbbbb" stroke="#000" stroke-width="2"/>
    <circle cx="250" cy="90" r="12" fill="#bbbbbb" stroke="#000" stroke-width="2"/>
    <!-- Connections (simplified) -->
    <line x1="62" y1="30" x2="138" y2="20" stroke="#999" stroke-width="1"/>
    <line x1="62" y1="30" x2="138" y2="55" stroke="#999" stroke-width="1"/>
    <line x1="62" y1="70" x2="138" y2="55" stroke="#999" stroke-width="1"/>
    <line x1="62" y1="70" x2="138" y2="90" stroke="#999" stroke-width="1"/>
    <line x1="62" y1="110" x2="138" y2="90" stroke="#999" stroke-width="1"/>
    <line x1="62" y1="110" x2="138" y2="125" stroke="#999" stroke-width="1"/>
    <line x1="162" y1="20" x2="238" y2="50" stroke="#999" stroke-width="1"/>
    <line x1="162" y1="55" x2="238" y2="50" stroke="#999" stroke-width="1"/>
    <line x1="162" y1="90" x2="238" y2="90" stroke="#999" stroke-width="1"/>
    <line x1="162" y1="125" x2="238" y2="90" stroke="#999" stroke-width="1"/>
  </g>

  <!-- Output tags -->
  <rect x="520" y="440" width="100" height="30" fill="#000000"/>
  <text x="570" y="462" font-family="Monaco, monospace" font-size="14" text-anchor="middle" fill="#ffffff">tech</text>
  <rect x="630" y="440" width="100" height="30" fill="#333333"/>
  <text x="680" y="462" font-family="Monaco, monospace" font-size="14" text-anchor="middle" fill="#ffffff">science</text>
  <rect x="520" y="480" width="100" height="30" fill="#555555"/>
  <text x="570" y="502" font-family="Monaco, monospace" font-size="14" text-anchor="middle" fill="#ffffff">elixir</text>
  <rect x="630" y="480" width="100" height="30" fill="#777777"/>
  <text x="680" y="502" font-family="Monaco, monospace" font-size="14" text-anchor="middle" fill="#ffffff">news</text>

  <!-- Floating keywords -->
  <text x="870" y="110" font-family="Monaco, monospace" font-size="28" fill="#000000" transform="rotate(-6 870 110)">Axon</text>
  <text x="940" y="180" font-family="Monaco, monospace" font-size="22" fill="#555555" transform="rotate(4 940 180)">Nx</text>
  <text x="880" y="250" font-family="Monaco, monospace" font-size="26" fill="#333333" transform="rotate(-3 880 250)">EXLA</text>
  <text x="970" y="320" font-family="Monaco, monospace" font-size="20" fill="#666666" transform="rotate(7 970 320)">tensors</text>
  <text x="890" y="390" font-family="Monaco, monospace" font-size="24" fill="#000000" transform="rotate(-5 890 390)">embeddings</text>
  <text x="950" y="460" font-family="Monaco, monospace" font-size="18" fill="#444444" transform="rotate(5 950 460)">softmax</text>
  <text x="880" y="530" font-family="Monaco, monospace" font-size="22" fill="#555555" transform="rotate(-4 880 530)">batch</text>
  <text x="1040" y="240" font-family="Monaco, monospace" font-size="16" fill="#777777" transform="rotate(8 1040 240)">GPU</text>
  <text x="1060" y="400" font-family="Monaco, monospace" font-size="20" fill="#444444" transform="rotate(-6 1060 400)">inference</text>
</svg>